<svg xmlns="http://www.w3.org/2000/svg" version="1.1" xmlns:xlink="http://www.w3.org/1999/xlink" width="110" height="135"><svg xmlns="http://www.w3.org/2000/svg" version="1.1" viewBox="-5.0 -10.0 110.0 135.0">
 <path d="m50 20c-7.957 0-15.586 3.1602-21.211 8.7891-5.6289 5.625-8.7891 13.254-8.7891 21.211s3.1602 15.586 8.7891 21.211c5.625 5.6289 13.254 8.7891 21.211 8.7891s15.586-3.1602 21.211-8.7891c5.6289-5.625 8.7891-13.254 8.7891-21.211s-3.1602-15.586-8.7891-21.211c-5.625-5.6289-13.254-8.7891-21.211-8.7891zm-9.6328 17.113c1.5117 0 2.7383 1.7188 2.7383 3.8359 0 2.1211-1.2266 3.8398-2.7383 3.8398-1.5117 0-2.7383-1.7188-2.7383-3.8359 0-2.1211 1.2266-3.8359 2.7383-3.8359zm20.59 23.234c-2.9062 2.9023-6.8477 4.5312-10.957 4.5312s-8.0508-1.6289-10.961-4.5312c-0.78125-0.78125-0.78125-2.0469 0-2.8281s2.0469-0.78125 2.8281 0c4.4922 4.4844 11.77 4.4844 16.262 0 0.78125-0.78125 2.0469-0.78125 2.8281 0s0.78125 2.0469 0 2.8281zm-1.3242-15.559c-1.5117 0-2.7383-1.7188-2.7383-3.8359s1.2266-3.8359 2.7383-3.8359c1.5117 0 2.7383 1.7188 2.7383 3.8359s-1.2266 3.8359-2.7383 3.8359z"></path>
<text x="0.0" y="117.5" font-size="5.0" font-weight="bold" font-family="Arbeit Regular, Helvetica, Arial-Unicode, Arial, Sans-serif" fill="#000000">Created by MBR</text><text x="0.0" y="122.5" font-size="5.0" font-weight="bold" font-family="Arbeit Regular, Helvetica, Arial-Unicode, Arial, Sans-serif" fill="#000000">from Noun Project</text></svg><style>@media (prefers-color-scheme: light) { :root { filter: none; } }
@media (prefers-color-scheme: dark) { :root { filter: none; } }
</style></svg>